# AST/ASF file generated using VICON BodyLanguage
# -----------------------------------------------
:version 1.10
:name VICON
:units
  mass 1.0
  length 0.45
  angle deg
:documentation
   .ast/.asf automatically generated from VICON data using
   VICON BodyBuilder and BodyLanguage model FoxedUp or BRILLIANT.MOD
:root
   order TX TY TZ RX RY RZ
   axis XYZ
   position 0 0 0  
   orientation 0 0 0 
:bonedata
  begin
     id 1 
     name lhipjoint
     direction 0.603808 -0.713975 0.35448 
     length 2.2025 
     axis 0 0 0  XYZ
  end
  begin
     id 2 
     name lfemur
     direction 0.34202 -0.939693 0  
     length 6.55877  
     axis 0 0 20  XYZ
    dof rx ry rz
    limits (-160.0 20.0)
           (-70.0 70.0)
           (-60.0 70.0)
  end
  begin
     id 3 
     name ltibia
     direction 0.34202 -0.939693 0   
     length 6.80302   
     axis 0 0 20   XYZ
    dof rx
    limits (-10.0 170.0)
  end
  begin
     id 4 
     name lfoot
     direction 0.091848 -0.25235 0.963267   
     length 2.03446   
     axis -90 7.62852e-016 20   XYZ
    dof rx rz
    limits (-45.0 90.0)
           (-70.0 20.0)
  end
  begin
     id 5 
     name ltoes
     direction 1.53608e-011 -4.21925e-011 1   
     length 1.02033   
     axis -90 7.62852e-016 20   XYZ
    dof rx
    limits (-90.0 20.0)
  end
  begin
     id 6 
     name rhipjoint
     direction -0.587285 -0.724947 0.359928   
     length 2.16916  
     axis 0 0 0  XYZ 
  end
  begin
     id 7 
     name rfemur
     direction -0.34202 -0.939693 0   
     length 6.43173   
     axis 0 0 -20   XYZ
    dof rx ry rz
    limits (-160.0 20.0)
           (-70.0 70.0)
           (-70.0 60.0)
  end
  begin
     id 8 
     name rtibia
     direction -0.34202 -0.939693 0   
     length 6.70662   
     axis 0 0 -20   XYZ
    dof rx
    limits (-10.0 170.0)
 end
 begin
     id 9 
     name rfoot
     direction -0.11854 -0.325686 0.938018   
     length 2.0773  
     axis -90 -7.62852e-016 -20   XYZ
    dof rx rz
    limits (-45.0 90.0)
           (-20.0 70.0)
  end
  begin
     id 10 
     name rtoes
     direction -1.53547e-011 -4.21838e-011 1   
     length 1.03267   
     axis -90 -7.62852e-016 -20   XYZ
    dof rx
    limits (-90.0 20.0)
  end
  begin
     id 11 
     name lowerback
     direction -0.0286554 0.999539 0.0100613   
     length 2.08751   
     axis 0 0 0   XYZ
    dof rx ry rz
    limits (-20.0 45.0)
           (-30.0 30.0)
           (-30.0 30.0)
  end
  begin
     id 12 
     name upperback
     direction 0.0227093 0.999705 -0.00860929   
     length 2.08517   
     axis 0 0 0   XYZ
    dof rx ry rz
    limits (-20.0 45.0)
           (-30.0 30.0)
           (-30.0 30.0)
  end
  begin
     id 13 
     name thorax
     direction 0.0351627 0.999285 -0.013892   
     length 2.08412   
     axis 0 0 0   XYZ
    dof rx ry rz
    limits (-20.0 45.0)
           (-30.0 30.0)
           (-30.0 30.0)
  end
  begin
     id 14 
     name lowerneck
     direction -0.0696283 0.997344 0.0213922   
     length 1.44164   
     axis 0 0 0   XYZ
    dof rx ry rz
    limits (-20.0 45.0)
           (-30.0 30.0)
           (-30.0 30.0)
  end
  begin
     id 15 
     name upperneck
     direction 0.0531 0.990412 -0.127531   
     length 1.45022   
     axis 0 0 0   XYZ
    dof rx ry rz
    limits (-20.0 45.0)
           (-30.0 30.0)
           (-30.0 30.0)
  end
  begin
     id 16
     name head
     direction 0.0188154 0.998548 -0.0504727  
     length 1.45845  
     axis 0 0 0   XYZ
    dof rx ry rz
    limits (-20.0 45.0)
           (-30.0 30.0)
           (-30.0 30.0)
  end
  begin
     id 17 
     name lclavicle
     direction 0.961559 0.260051 0.088188  
     length 2.86057  
     axis 0 0 0   XYZ
    dof ry rz
    limits (-20.0 10.0)
           (0.0 20.0)
  end
  begin
     id 18 
     name lhumerus
     direction 1 -4.48959e-011 2.88185e-027   
     length 4.36901   
     axis 180 -30 -90   XYZ
    dof rx ry rz
    limits (-60.0 90.0)
           (-90.0 90.0)
           (-90.0 90.0)
  end
  begin
     id 19
     name lradius
     direction 1 -4.48965e-011 -3.92618e-028   
     length 3.21737   
     axis 180 -30 -90   XYZ
    dof rx
    limits (-10.0 170.0)
  end
  begin
     id 20
     name lwrist
     direction 1 -4.49037e-011 2.57246e-027   
     length 1.60869   
     axis -1.61769e-015 90 90   XYZ
    dof ry
    limits (-180.0 0.0)
 end
  begin
     id 21 
     name lhand
     direction 1 -4.48807e-011 5.12958e-027   
     length 0.564313   
     axis -3.27988e-015 90 90   XYZ
    dof rx rz
    limits (-90.0 90.0)
           (-45.0 45.0)
  end
  begin
     id 22 
     name lfingers
     direction 1 -4.48879e-011 1.02687e-026   
     length 0.454963   
     axis -6.5598e-015 90 90   XYZ
    dof rx
    limits (0.0 90.0)
  end
  begin
     id 23
     name lthumb
     direction 0.707107 -6.3475e-011 0.707107   
     length 0.653239   
     axis -90 45 2.19363e-014   XYZ
    dof rx rz
    limits (-45.0 45.0)
           (-45.0 45.0)
  end
  begin
     id 24 
     name rclavicle
     direction -0.954677 0.253915 0.155304   
     length 3.11497  
     axis 0 0 0   XYZ 
    dof ry rz
    limits (-10.0 20.0)
           (-20.0 0.0)
  end
  begin
     id 25 
     name rhumerus
     direction -1 -4.48958e-011 -8.20169e-028  
     length 4.34118   
     axis 180 30 90   XYZ
    dof rx ry rz
    limits (-90.0 60.0)
           (-90.0 90.0)
           (-90.0 90.0)
  end
  begin
     id 26 
     name rradius
     direction -1 -4.48978e-011 1.5676e-027   
     length 3.09531   
     axis 180 30 90   XYZ
    dof rx
    limits (-10.0 170.0)
  end
  begin
     id 27 
     name rwrist
     direction -1 -4.49001e-011 2.57123e-027   
     length 1.54765   
     axis -1.61769e-015 -90 -90   XYZ
    dof ry
    limits (-180.0 0.0)
  end
  begin
     id 28
     name rhand
     direction -1 -4.48847e-011 5.13225e-027   
     length 0.597446   
     axis -3.27988e-015 -90 -90   XYZ
    dof rx rz
    limits (-90.0 90.0)
           (-45.0 45.0)
  end
  begin
     id 29
     name rfingers
     direction -1 -4.49094e-011 1.02974e-026   
     length 0.481677   
     axis -6.5598e-015 -90 -90   XYZ
    dof rx
    limits (0.0 90.0)
  end
  begin
     id 30
     name rthumb
     direction -0.707107 -6.34859e-011 0.707107   
     length 0.691594   
     axis -90 -45 -2.19363e-014   XYZ
    dof rx rz
    limits (-45.0 45.0)
           (-45.0 45.0)
  end
:hierarchy
  begin
    root lhipjoint rhipjoint lowerback
    lhipjoint lfemur
    lfemur ltibia
    ltibia lfoot
    lfoot ltoes
    rhipjoint rfemur
    rfemur rtibia
    rtibia rfoot
    rfoot rtoes
    lowerback upperback
    upperback thorax
    thorax lowerneck lclavicle rclavicle
    lowerneck upperneck
    upperneck head
    lclavicle lhumerus
    lhumerus lradius
    lradius lwrist
    lwrist lhand lthumb
    lhand lfingers
    rclavicle rhumerus
    rhumerus rradius
    rradius rwrist
    rwrist rhand rthumb
    rhand rfingers
  end

#!OML:ASF G:\acrobat\cartwheel_test 2\Patient 1\Session 1\acrobat.ASF
:FULLY-SPECIFIED
:DEGREES
258
root 7.63083 14.5611 -0.431393 -9.29953 -0.0638342 1.08681
lowerback -1.50015 -1.63667 -4.77647
upperback 0.770035 -2.11364 2.0656
thorax 1.88802 -1.12954 4.74641
lowerneck -1.35574 -14.2665 -13.9704
upperneck 12.6879 -19.5388 6.93251
head 6.12473 -9.86618 2.87826
rclavicle -2.29596e-014 -1.74931e-014
rhumerus 46.7009 5.49659 -65.0948
rradius 19.923
rwrist 29.3861
rhand -4.4494 30.7147
rfingers 7.12502
rthumb 21.3224 1.86771
lclavicle -2.29596e-014 -1.74931e-014
lhumerus 41.4875 -16.3953 41.2146
lradius 29.2884
lwrist 13.8357
lhand -3.85002 42.1675
lfingers 7.12502
lthumb 21.898 70.9483
rfemur -10.2718 -7.07941 11.6831
rtibia 52.7446
rfoot -30.3397 -15.2752
rtoes -14.4325
lfemur -13.768 5.02427 -9.5622
ltibia 55.0414
lfoot -25.3185 11.3329
ltoes -15.1016
259
root 7.63097 14.5592 -0.430115 -9.26938 -0.0402236 1.04837
lowerback -1.52894 -1.65029 -4.7393
upperback 0.777179 -2.13183 2.09218
thorax 1.91337 -1.13925 4.7514
lowerneck -1.45355 -14.288 -13.9759
upperneck 12.7047 -19.5546 6.92473
head 6.14768 -9.87135 2.8664
rclavicle -1.16289e-014 -3.97569e-015
rhumerus 46.7149 5.48689 -65.0931
rradius 19.9308
rwrist 29.4203
rhand -4.39437 30.6383
rfingers 7.12502
rthumb 21.3752 1.79732
lclavicle -1.16289e-014 -3.97569e-015
lhumerus 41.5018 -16.2921 41.384
lradius 29.2309
lwrist 13.7465
lhand -3.81889 42.2129
lfingers 7.12502
lthumb 21.9279 70.9902
rfemur -10.2932 -7.12805 11.7195
rtibia 52.7461
rfoot -30.3368 -15.2801
rtoes -14.6852
lfemur -13.8263 5.0156 -9.52613
ltibia 55.0635
lfoot -25.3126 11.3878
ltoes -15.1663
260
root 7.63145 14.5578 -0.428953 -9.20707 -0.0250233 0.998665
lowerback -1.59919 -1.64775 -4.6751
upperback 0.777481 -2.12719 2.11001
thorax 1.95085 -1.13725 4.73178
lowerneck -1.58132 -14.3121 -13.9833
upperneck 12.771 -19.5753 6.92951
head 6.19327 -9.8776 2.85385
rclavicle -2.80286e-014 -9.54166e-015
rhumerus 46.6936 5.45251 -65.0485
rradius 19.9561
rwrist 29.4301
rhand -4.37854 30.5355
rfingers 7.12502
rthumb 21.3904 1.69622
lclavicle -2.80286e-014 -9.54166e-015
lhumerus 41.5502 -16.2361 41.5328
lradius 29.2025
lwrist 13.7028
lhand -3.88318 42.312
lfingers 7.12502
lthumb 21.8661 71.0965
rfemur -10.3541 -7.16115 11.7839
rtibia 52.7461
rfoot -30.3084 -15.3415
rtoes -14.8663
lfemur -13.9159 4.98897 -9.48105
ltibia 55.095
lfoot -25.3837 11.3433
ltoes -14.7454
261
root 7.63113 14.5578 -0.42825 -9.15993 -0.0512501 0.985996
lowerback -1.63437 -1.63429 -4.65576
upperback 0.754195 -2.10858 2.12329
thorax 1.94416 -1.12707 4.7348
lowerneck -1.60409 -14.3136 -14.0276
upperneck 12.8089 -19.5778 6.95156
head 6.21611 -9.87889 2.86239
rclavicle 2.61402e-014 -9.54166e-015
rhumerus 46.6489 5.44524 -65.0181
rradius 19.9644
rwrist 29.4055
rhand -4.36474 30.5785
rfingers 7.12502
rthumb 21.4037 1.74075
lclavicle 2.61402e-014 -9.54166e-015
lhumerus 41.5501 -16.2978 41.4618
lradius 29.2379
lwrist 13.708
lhand -3.84482 42.4507
lfingers 7.12502
lthumb 21.903 71.2309
rfemur -10.43 -7.13628 11.8221
rtibia 52.7625
rfoot -30.3093 -15.3623
rtoes -14.5639
lfemur -13.9782 4.99221 -9.46812
ltibia 55.135
lfoot -25.4134 11.3371
ltoes -14.6079
262
root 7.63079 14.5579 -0.426503 -9.15142 -0.056967 1.05359
lowerback -1.63464 -1.62944 -4.70866
upperback 0.745898 -2.10056 2.10501
thorax 1.93611 -1.12316 4.74618
lowerneck -1.51013 -14.3075 -14.0616
upperneck 12.7446 -19.5852 7.01465
head 6.19071 -9.88316 2.89387
rclavicle 4.96962e-016 9.54166e-015
rhumerus 46.6433 5.36675 -65.1485
rradius 19.9027
rwrist 29.4683
rhand -4.31116 30.7616
rfingers 7.12502
rthumb 21.4551 1.92972
lclavicle 4.96962e-016 9.54166e-015
lhumerus 41.5477 -16.3086 41.3994
lradius 29.2529
lwrist 13.6595
lhand -3.65108 42.5303
lfingers 7.12502
lthumb 22.089 71.2886
rfemur -10.4612 -7.14264 11.7454
rtibia 52.7967
rfoot -30.4058 -15.3231
rtoes -14.1369
lfemur -13.9801 4.98724 -9.55262
ltibia 55.1484
lfoot -25.3912 11.3887
ltoes -14.9427
263
root 7.63108 14.5582 -0.424082 -9.17079 -0.069608 1.0709
lowerback -1.635 -1.62538 -4.69654
upperback 0.771865 -2.09503 2.0943
thorax 1.96159 -1.12143 4.72796
lowerneck -1.41346 -14.2958 -14.0618
upperneck 12.6452 -19.5852 7.0822
head 6.14991 -9.88213 2.92486
rclavicle -3.3694e-014 2.46493e-014
rhumerus 46.6904 5.28425 -65.2796
rradius 19.8066
rwrist 29.5675
rhand -4.41148 30.8252
rfingers 7.12502
rthumb 21.3588 1.98239
lclavicle -3.3694e-014 2.46493e-014
lhumerus 41.574 -16.2122 41.4659
lradius 29.218
lwrist 13.5379
lhand -3.49855 42.5639
lfingers 7.12502
lthumb 22.2354 71.3049
rfemur -10.4613 -7.174 11.7207
rtibia 52.8745
rfoot -30.4962 -15.3395
rtoes -14.2547
lfemur -13.9304 4.9924 -9.56926
ltibia 55.1208
lfoot -25.3787 11.3873
ltoes -15.0967
264
root 7.63128 14.5586 -0.422578 -9.17755 -0.105635 0.98906
lowerback -1.62071 -1.62143 -4.60928
upperback 0.771226 -2.09295 2.1245
thorax 1.9505 -1.11922 4.71048
lowerneck -1.34153 -14.2747 -14.022
upperneck 12.5926 -19.5637 7.07735
head 6.11446 -9.87244 2.92866
rclavicle -3.77691e-015 1.59028e-015
rhumerus 46.679 5.31403 -65.2604
rradius 19.796
rwrist 29.5463
rhand -4.54887 30.7982
rfingers 7.12502
rthumb 21.2268 1.94047
lclavicle -3.77691e-015 1.59028e-015
lhumerus 41.5494 -16.1714 41.5115
lradius 29.2173
lwrist 13.4884
lhand -3.43629 42.5805
lfingers 7.12502
lthumb 22.2952 71.3143
rfemur -10.466 -7.12953 11.8313
rtibia 52.9133
rfoot -30.4462 -15.3788
rtoes -14.6333
lfemur -13.8925 5.01172 -9.45584
ltibia 55.1081
lfoot -25.4197 11.3239
ltoes -14.8005
265
root 7.63187 14.5588 -0.421311 -9.16555 -0.127803 0.952895
lowerback -1.59221 -1.61682 -4.56291
upperback 0.744127 -2.08946 2.13867
thorax 1.90485 -1.11519 4.70032
lowerneck -1.34114 -14.2706 -14.0061
upperneck 12.6194 -19.5578 7.0545
head 6.11841 -9.87032 2.91984
rclavicle 2.70347e-014 -2.3059e-014
rhumerus 46.6195 5.31533 -65.265
rradius 19.8336
rwrist 29.515
rhand -4.45664 30.8307
rfingers 7.12502
rthumb 21.3154 1.98299
lclavicle 2.70347e-014 -2.3059e-014
lhumerus 41.4984 -16.2492 41.4405
lradius 29.2952
lwrist 13.5785
lhand -3.50554 42.542
lfingers 7.12502
lthumb 22.2287 71.2837
rfemur -10.4769 -7.07946 11.8768
rtibia 52.9047
rfoot -30.4361 -15.3282
rtoes -14.6004
lfemur -13.8811 5.01923 -9.41005
ltibia 55.1109
lfoot -25.456 11.3029
ltoes -14.5246
266
root 7.6326 14.5589 -0.420393 -9.15788 -0.143297 0.98067
lowerback -1.57247 -1.61233 -4.57357
upperback 0.731216 -2.08398 2.13185
thorax 1.87992 -1.11158 4.70022
lowerneck -1.36287 -14.2609 -14.0143
upperneck 12.6419 -19.546 7.07514
head 6.13078 -9.8633 2.92594
rclavicle -6.36111e-015 6.36111e-015
rhumerus 46.5981 5.26575 -65.3332
rradius 19.8301
rwrist 29.5464
rhand -4.38198 30.9491
rfingers 7.12502
rthumb 21.3871 2.10948
lclavicle -6.36111e-015 6.36111e-015
lhumerus 41.4713 -16.2985 41.38
lradius 29.3537
lwrist 13.6839
lhand -3.5953 42.5138
lfingers 7.12502
lthumb 22.1425 71.2658
rfemur -10.5262 -7.06128 11.8391
rtibia 52.9788
rfoot -30.5391 -15.2113
rtoes -14.2765
lfemur -13.8993 5.02797 -9.45324
ltibia 55.1391
lfoot -25.4177 11.377
ltoes -14.741
